<?xml version="1.0" encoding="utf-8"?>
<!-- Generator: Adobe Illustrator 16.0.0, SVG Export Plug-In . SVG Version: 6.00 Build 0)  -->
<!DOCTYPE svg PUBLIC "-//W3C//DTD SVG 1.1//EN" "http://www.w3.org/Graphics/SVG/1.1/DTD/svg11.dtd">
<svg version="1.1" id="Layer_1" xmlns="http://www.w3.org/2000/svg" xmlns:xlink="http://www.w3.org/1999/xlink" x="0px" y="0px"
	 width="300px" height="120px" viewBox="0 0 300 120" enable-background="new 0 0 300 120" xml:space="preserve">
<rect display="none" fill="#F40000" width="300" height="60"/>
<rect y="60" display="none" fill="#00F20B" width="300" height="60"/>
<rect display="none" fill="#009668" width="60" height="60"/>
<rect x="60" display="none" fill="#009668" width="60" height="60"/>
<rect x="120" display="none" fill="#009668" width="60" height="60"/>
<rect x="180" display="none" fill="#009668" width="60" height="60"/>
<rect x="240" display="none" fill="#009668" width="60" height="60"/>
<g>
	<g>
		<path fill="#CC0055" d="M210.771,18.795l-1.74,6.962L208.719,27H210h8l-10.551,14.068l2.513-8.793L210.326,31H209h-7.044
			L210.771,18.795 M213,14h0.005H213z M213,14l-13,18h9l-4,14l15-20h-10L213,14L213,14z"/>
	</g>
	<g>
		<path fill="#CC0055" d="M270.007,19.498c0.066,0,6.735,0.004,11.078,0.324c0.068,0.008,0.145,0.016,0.228,0.024
			c0.608,0.061,1.529,0.152,2.382,1.064c0.53,0.548,0.896,1.94,0.998,2.671c0.004,0.026,0.313,2.621,0.313,5.173v2.481
			c0,2.553-0.31,5.148-0.311,5.155c-0.105,0.749-0.471,2.142-1.013,2.702c-0.84,0.899-1.761,0.99-2.369,1.05
			c-0.084,0.008-0.16,0.016-0.181,0.02c-4.392,0.324-11.067,0.339-11.123,0.339c-0.083,0-8.221-0.08-10.756-0.319
			c-0.13-0.023-0.282-0.042-0.453-0.063c-0.727-0.089-1.723-0.212-2.496-1.039c-0.53-0.548-0.896-1.94-0.998-2.67
			c-0.004-0.026-0.313-2.622-0.313-5.174v-2.481c0-2.552,0.309-5.147,0.31-5.154c0.105-0.749,0.471-2.142,1.013-2.702
			c0.841-0.9,1.762-0.992,2.371-1.052c0.083-0.008,0.159-0.016,0.18-0.02c4.391-0.324,11.06-0.328,11.126-0.328H270.007 M267,34.5
			c0.149,0,0.3-0.034,0.438-0.101l7.177-3.5c0.344-0.167,0.562-0.517,0.562-0.899s-0.218-0.731-0.562-0.899l-7.177-3.5
			C267.3,25.534,267.149,25.5,267,25.5c-0.185,0-0.368,0.051-0.53,0.152c-0.292,0.183-0.47,0.503-0.47,0.848v7
			c0,0.345,0.178,0.666,0.47,0.848C266.632,34.449,266.815,34.5,267,34.5 M270.007,18.498h-0.014c0,0-6.72,0-11.199,0.331
			c-0.626,0.076-1.99,0.083-3.208,1.386c-0.96,0.992-1.272,3.246-1.272,3.246s-0.319,2.646-0.319,5.293v2.481
			c0,2.647,0.319,5.294,0.319,5.294s0.313,2.254,1.272,3.246c1.218,1.303,2.817,1.262,3.53,1.398
			c2.561,0.25,10.884,0.328,10.884,0.328s6.727-0.011,11.206-0.342c0.626-0.076,1.99-0.082,3.207-1.385
			c0.96-0.992,1.272-3.246,1.272-3.246s0.32-2.646,0.32-5.294v-2.481c0-2.646-0.32-5.293-0.32-5.293s-0.313-2.254-1.272-3.246
			c-1.217-1.303-2.581-1.31-3.207-1.386C276.727,18.498,270.007,18.498,270.007,18.498L270.007,18.498z M267,33.5v-7l7.177,3.5
			L267,33.5L267,33.5z"/>
	</g>
	<g>
		<g>
			<polygon fill="#CC0055" points="46,19.5 18,19.5 18,20.5 46,20.5 46,19.5 			"/>
		</g>
		<g>
			<path fill="#CC0055" d="M16.5,18.5c0.827,0,1.5,0.673,1.5,1.5s-0.673,1.5-1.5,1.5S15,20.827,15,20S15.673,18.5,16.5,18.5
				 M16.5,17.5c-1.381,0-2.5,1.119-2.5,2.5s1.119,2.5,2.5,2.5S19,21.381,19,20S17.881,17.5,16.5,17.5L16.5,17.5z"/>
		</g>
		<g>
			<polygon fill="#CC0055" points="46,28.5 18,28.5 18,29.5 46,29.5 46,28.5 			"/>
		</g>
		<g>
			<path fill="#CC0055" d="M16.5,27.5c0.827,0,1.5,0.673,1.5,1.5s-0.673,1.5-1.5,1.5S15,29.827,15,29S15.673,27.5,16.5,27.5
				 M16.5,26.5c-1.381,0-2.5,1.119-2.5,2.5s1.119,2.5,2.5,2.5S19,30.381,19,29S17.881,26.5,16.5,26.5L16.5,26.5z"/>
		</g>
		<g>
			<polygon fill="#CC0055" points="46,37.5 18,37.5 18,38.5 46,38.5 46,37.5 			"/>
		</g>
		<g>
			<path fill="#CC0055" d="M16.5,36.5c0.827,0,1.5,0.673,1.5,1.5s-0.673,1.5-1.5,1.5S15,38.827,15,38S15.673,36.5,16.5,36.5
				 M16.5,35.5c-1.381,0-2.5,1.119-2.5,2.5s1.119,2.5,2.5,2.5S19,39.381,19,38S17.881,35.5,16.5,35.5L16.5,35.5z"/>
		</g>
	</g>
	<g>
		<g>
			<path fill="#CC0055" d="M97.824,18.991c0.38,0,0.731,0.189,0.915,0.493l5.772,9.551l0.074,0.122l0.105,0.097
				c0.2,0.184,0.308,0.44,0.296,0.704L104.984,30l0.002,0.042c0.011,0.263-0.097,0.52-0.296,0.704l-0.104,0.096l-0.074,0.122
				l-5.773,9.552c-0.184,0.304-0.534,0.493-0.914,0.493c-0.188,0-0.374-0.048-0.537-0.137l-1.769-0.976
				c-0.24-0.132-0.409-0.342-0.475-0.59c-0.062-0.231-0.026-0.475,0.1-0.684l4.899-8.105L100.355,30l-0.313-0.517l-4.899-8.106
				c-0.126-0.209-0.162-0.452-0.1-0.683c0.066-0.248,0.235-0.458,0.475-0.59l1.769-0.975C97.45,19.039,97.636,18.991,97.824,18.991
				 M97.824,17.991c-0.347,0-0.698,0.084-1.02,0.262l-1.769,0.976c-0.977,0.539-1.312,1.732-0.748,2.666L99.187,30l-4.899,8.105
				c-0.564,0.934-0.229,2.127,0.748,2.666l1.769,0.976c0.322,0.177,0.673,0.262,1.02,0.262c0.706,0,1.392-0.35,1.77-0.976
				l5.773-9.552c0.424-0.391,0.641-0.932,0.617-1.481c0.023-0.55-0.194-1.091-0.618-1.482l-5.772-9.551
				C99.216,18.341,98.53,17.991,97.824,17.991L97.824,17.991z"/>
		</g>
		<g>
			<path fill="#CC0055" d="M82.176,18.991c0.188,0,0.374,0.047,0.537,0.137l1.769,0.976c0.24,0.132,0.409,0.342,0.475,0.59
				c0.062,0.231,0.026,0.474-0.1,0.683l-4.899,8.106L79.645,30l0.313,0.517l4.899,8.105c0.126,0.209,0.162,0.452,0.1,0.684
				c-0.066,0.248-0.235,0.458-0.475,0.59l-1.769,0.975c-0.164,0.09-0.349,0.138-0.538,0.138c-0.38,0-0.73-0.189-0.914-0.493
				l-5.773-9.552l-0.074-0.122l-0.104-0.096c-0.2-0.184-0.308-0.441-0.296-0.704L75.016,30l-0.002-0.042
				c-0.011-0.264,0.097-0.52,0.296-0.704l0.105-0.097l0.074-0.122l5.772-9.551C81.445,19.18,81.796,18.991,82.176,18.991
				 M82.176,17.991c-0.706,0-1.392,0.35-1.771,0.976l-5.772,9.551c-0.424,0.391-0.642,0.932-0.618,1.482
				c-0.023,0.55,0.193,1.09,0.617,1.481l5.773,9.552c0.378,0.626,1.064,0.976,1.77,0.976c0.347,0,0.698-0.084,1.02-0.262
				l1.769-0.976c0.977-0.539,1.312-1.732,0.748-2.666L80.813,30l4.899-8.106c0.564-0.933,0.229-2.126-0.748-2.666l-1.769-0.976
				C82.874,18.076,82.523,17.991,82.176,17.991L82.176,17.991z"/>
		</g>
	</g>
	<g>
		<path fill="#CC0055" d="M150.333,20.75c2.062,0,4.022,0.789,5.521,2.221c0.118,0.113,0.258,0.191,0.405,0.235
			c0.034,0.147,0.104,0.288,0.206,0.411c1.204,1.437,1.867,3.26,1.867,5.133c0,4.411-3.589,8-8,8c-1.873,0-3.696-0.663-5.132-1.867
			c-0.123-0.103-0.265-0.172-0.412-0.207c-0.044-0.147-0.122-0.287-0.235-0.405c-1.433-1.499-2.221-3.459-2.221-5.521
			C142.333,24.339,145.922,20.75,150.333,20.75 M160.96,17.833l-4.415,4.415c-1.616-1.544-3.801-2.498-6.212-2.498
			c-4.971,0-9,4.029-9,9c0,2.412,0.954,4.596,2.498,6.212l-5.498,5.498l0.707,0.708l5.519-5.519c1.563,1.31,3.575,2.101,5.774,2.101
			c4.971,0,9-4.029,9-9c0-2.199-0.791-4.212-2.101-5.775l4.435-4.435L160.96,17.833L160.96,17.833z"/>
	</g>
</g>
<g>
	<g>
		<path fill="#FFFFFF" d="M210.768,78.795l-1.74,6.963L208.716,87h1.281h8l-10.551,14.067l2.513-8.793L210.323,91h-1.326h-7.044
			L210.768,78.795 M212.997,74h0.005H212.997z M212.997,74l-13,18h9l-4,14l15-20h-10L212.997,74L212.997,74z"/>
	</g>
	<g>
		<path fill="#FFFFFF" d="M270.004,79.498c0.066,0,6.735,0.004,11.078,0.324c0.068,0.008,0.145,0.016,0.228,0.023
			c0.608,0.061,1.529,0.152,2.382,1.064c0.53,0.548,0.896,1.94,0.998,2.671c0.004,0.025,0.313,2.621,0.313,5.173v2.481
			c0,2.553-0.31,5.148-0.311,5.155c-0.105,0.749-0.471,2.142-1.013,2.702c-0.84,0.898-1.761,0.99-2.369,1.051
			c-0.084,0.008-0.16,0.016-0.181,0.02c-4.392,0.324-11.067,0.339-11.123,0.339c-0.083-0.001-8.221-0.08-10.756-0.319
			c-0.13-0.023-0.282-0.043-0.453-0.063c-0.727-0.09-1.723-0.212-2.496-1.039c-0.53-0.548-0.896-1.94-0.998-2.671
			c-0.004-0.025-0.313-2.621-0.313-5.174v-2.481c0-2.552,0.309-5.147,0.31-5.154c0.105-0.749,0.471-2.142,1.013-2.702
			c0.841-0.899,1.762-0.991,2.371-1.052c0.083-0.008,0.159-0.016,0.18-0.02c4.391-0.324,11.06-0.328,11.126-0.328H270.004
			 M266.997,94.5c0.149,0,0.3-0.033,0.438-0.102l7.177-3.5c0.344-0.167,0.562-0.516,0.562-0.898s-0.218-0.731-0.562-0.898
			l-7.177-3.5c-0.139-0.068-0.289-0.102-0.438-0.102c-0.185,0-0.368,0.051-0.53,0.152c-0.292,0.183-0.47,0.503-0.47,0.848v7
			c0,0.345,0.178,0.665,0.47,0.848C266.629,94.449,266.813,94.5,266.997,94.5 M270.004,78.498h-0.014c0,0-6.72,0-11.199,0.331
			c-0.626,0.076-1.99,0.083-3.208,1.386c-0.96,0.992-1.272,3.246-1.272,3.246s-0.319,2.646-0.319,5.293v2.481
			c0,2.647,0.319,5.294,0.319,5.294s0.313,2.254,1.272,3.246c1.218,1.303,2.817,1.262,3.53,1.398
			c2.561,0.25,10.884,0.328,10.884,0.328s6.727-0.011,11.206-0.342c0.626-0.076,1.99-0.082,3.207-1.385
			c0.96-0.992,1.272-3.246,1.272-3.246s0.32-2.646,0.32-5.294v-2.481c0-2.646-0.32-5.293-0.32-5.293s-0.313-2.254-1.272-3.246
			c-1.217-1.303-2.581-1.31-3.207-1.386C276.724,78.498,270.004,78.498,270.004,78.498L270.004,78.498z M266.997,93.5v-7l7.177,3.5
			L266.997,93.5L266.997,93.5z"/>
	</g>
	<g>
		<g>
			<polygon fill="#FFFFFF" points="45.997,79.5 17.997,79.5 17.997,80.5 45.997,80.5 45.997,79.5 			"/>
		</g>
		<g>
			<path fill="#FFFFFF" d="M16.497,78.5c0.827,0,1.5,0.673,1.5,1.5s-0.673,1.5-1.5,1.5s-1.5-0.673-1.5-1.5S15.67,78.5,16.497,78.5
				 M16.497,77.5c-1.381,0-2.5,1.119-2.5,2.5s1.119,2.5,2.5,2.5s2.5-1.119,2.5-2.5S17.878,77.5,16.497,77.5L16.497,77.5z"/>
		</g>
		<g>
			<polygon fill="#FFFFFF" points="45.997,88.5 17.997,88.5 17.997,89.5 45.997,89.5 45.997,88.5 			"/>
		</g>
		<g>
			<path fill="#FFFFFF" d="M16.497,87.5c0.827,0,1.5,0.673,1.5,1.5s-0.673,1.5-1.5,1.5s-1.5-0.673-1.5-1.5S15.67,87.5,16.497,87.5
				 M16.497,86.5c-1.381,0-2.5,1.119-2.5,2.5s1.119,2.5,2.5,2.5s2.5-1.119,2.5-2.5S17.878,86.5,16.497,86.5L16.497,86.5z"/>
		</g>
		<g>
			<polygon fill="#FFFFFF" points="45.997,97.5 17.997,97.5 17.997,98.5 45.997,98.5 45.997,97.5 			"/>
		</g>
		<g>
			<path fill="#FFFFFF" d="M16.497,96.5c0.827,0,1.5,0.673,1.5,1.5s-0.673,1.5-1.5,1.5s-1.5-0.673-1.5-1.5S15.67,96.5,16.497,96.5
				 M16.497,95.5c-1.381,0-2.5,1.119-2.5,2.5s1.119,2.5,2.5,2.5s2.5-1.119,2.5-2.5S17.878,95.5,16.497,95.5L16.497,95.5z"/>
		</g>
	</g>
	<g>
		<g>
			<path fill="#FFFFFF" d="M97.824,78.991L97.824,78.991c0.38,0,0.73,0.188,0.914,0.493l5.772,9.551l0.074,0.122l0.105,0.096
				c0.2,0.185,0.308,0.44,0.296,0.704L104.984,90l0.002,0.043c0.011,0.267-0.094,0.517-0.297,0.704l-0.104,0.096l-0.073,0.121
				l-5.773,9.553c-0.184,0.304-0.534,0.492-0.914,0.492c-0.188,0-0.374-0.048-0.537-0.138l-1.769-0.975
				c-0.24-0.133-0.409-0.343-0.475-0.591c-0.062-0.231-0.026-0.474,0.1-0.683l4.899-8.105L100.355,90l-0.313-0.518l-4.899-8.104
				c-0.126-0.21-0.162-0.452-0.1-0.684c0.066-0.248,0.235-0.458,0.475-0.59l1.769-0.976C97.45,79.039,97.636,78.991,97.824,78.991
				 M97.824,77.991c-0.347,0-0.698,0.084-1.02,0.262l-1.769,0.976c-0.977,0.539-1.312,1.732-0.748,2.666L99.187,90l-4.899,8.105
				c-0.564,0.934-0.229,2.127,0.748,2.666l1.769,0.976c0.322,0.178,0.673,0.262,1.02,0.262c0.706,0,1.392-0.35,1.77-0.976
				l5.773-9.552c0.424-0.392,0.641-0.932,0.617-1.481c0.023-0.55-0.194-1.092-0.618-1.482l-5.772-9.551
				C99.216,78.341,98.53,77.991,97.824,77.991L97.824,77.991z"/>
		</g>
		<g>
			<path fill="#FFFFFF" d="M82.176,78.991c0.188,0,0.374,0.048,0.537,0.138l1.769,0.975c0.24,0.133,0.409,0.343,0.475,0.591
				c0.062,0.231,0.026,0.474-0.1,0.683l-4.899,8.105L79.645,90l0.313,0.518l4.899,8.104c0.126,0.21,0.162,0.452,0.1,0.684
				c-0.066,0.248-0.235,0.458-0.475,0.59l-1.769,0.976c-0.164,0.09-0.349,0.138-0.538,0.138c-0.38,0-0.73-0.188-0.914-0.493
				l-5.773-9.552l-0.073-0.121l-0.104-0.096c-0.203-0.188-0.308-0.438-0.297-0.704L75.016,90l-0.002-0.043
				c-0.011-0.264,0.097-0.52,0.296-0.704l0.105-0.096l0.074-0.122l5.772-9.552C81.445,79.18,81.795,78.991,82.176,78.991
				 M82.176,77.991c-0.706,0-1.392,0.35-1.77,0.976l-5.772,9.551c-0.424,0.391-0.642,0.933-0.618,1.482
				c-0.023,0.55,0.193,1.09,0.617,1.481l5.773,9.552c0.378,0.626,1.064,0.976,1.77,0.976c0.347,0,0.698-0.084,1.02-0.262
				l1.769-0.976c0.977-0.539,1.312-1.732,0.748-2.666L80.813,90l4.899-8.105c0.564-0.934,0.229-2.127-0.748-2.666l-1.769-0.976
				C82.874,78.075,82.522,77.991,82.176,77.991L82.176,77.991z"/>
		</g>
	</g>
	<g>
		<path fill="#FFFFFF" d="M150.333,80.75c2.062,0,4.022,0.789,5.521,2.221c0.119,0.113,0.259,0.192,0.406,0.236
			c0.035,0.146,0.104,0.287,0.206,0.41c1.204,1.438,1.867,3.26,1.867,5.133c0,4.411-3.589,8-8,8c-1.873,0-3.696-0.663-5.132-1.867
			c-0.123-0.103-0.265-0.172-0.412-0.206c-0.044-0.147-0.122-0.287-0.235-0.405c-1.432-1.5-2.221-3.461-2.221-5.521
			C142.333,84.339,145.922,80.75,150.333,80.75 M160.96,77.832l-4.415,4.416c-1.616-1.545-3.801-2.498-6.212-2.498
			c-4.971,0-9,4.029-9,9c0,2.412,0.954,4.596,2.498,6.212l-5.498,5.498l0.707,0.708l5.519-5.519c1.563,1.31,3.575,2.101,5.774,2.101
			c4.971,0,9-4.029,9-9c0-2.199-0.791-4.212-2.101-5.775l4.435-4.435L160.96,77.832L160.96,77.832z"/>
	</g>
</g>
</svg>
